<?xml version="1.0" standalone="no"?>
<!DOCTYPE svg PUBLIC "-//W3C//DTD SVG 20010904//EN"
 "http://www.w3.org/TR/2001/REC-SVG-20010904/DTD/svg10.dtd">
<svg version="1.0" xmlns="http://www.w3.org/2000/svg"
 width="557.000000pt" height="557.000000pt" viewBox="0 0 557.000000 557.000000"
 preserveAspectRatio="xMidYMid meet">
<metadata>
Created by potrace 1.14, written by Peter Selinger 2001-2017
</metadata>
<g transform="translate(0.000000,557.000000) scale(0.100000,-0.100000)"
fill="#000000" stroke="none">
<path d="M2769 5566 c-2 -2 -45 -6 -94 -9 -50 -3 -97 -8 -105 -11 -8 -3 -34
-7 -58 -10 -24 -3 -47 -8 -51 -10 -4 -3 -18 -7 -32 -10 -13 -2 -60 -18 -104
-34 -71 -27 -126 -53 -270 -131 -22 -11 -45 -21 -52 -21 -24 0 -270 -130 -344
-182 -154 -107 -297 -245 -400 -383 -32 -44 -64 -86 -69 -92 -49 -60 -240
-417 -240 -450 0 -7 -20 -25 -43 -42 -59 -41 -134 -117 -164 -169 -74 -125
-88 -219 -87 -567 0 -230 12 -340 43 -411 24 -53 83 -113 148 -149 48 -27 50
-30 52 -75 1 -28 -6 -63 -17 -89 l-19 -42 -48 41 c-121 105 -191 101 -277 -14
-13 -17 -24 -41 -26 -55 -2 -13 -7 -32 -13 -42 -14 -27 -11 -172 6 -274 17
-106 37 -180 112 -415 86 -271 147 -382 229 -416 27 -12 40 -11 84 2 29 8 53
14 54 12 0 -2 18 -53 38 -114 70 -211 200 -452 326 -604 129 -156 383 -381
587 -522 172 -118 367 -205 549 -243 11 -2 30 -6 41 -8 61 -14 114 -18 226
-22 165 -4 336 21 489 71 8 3 15 5 15 4 0 -3 130 57 205 94 302 153 738 548
896 812 74 122 204 420 221 504 6 34 12 35 71 15 37 -13 47 -13 76 -1 66 28
125 118 189 291 28 77 69 210 69 222 0 4 3 13 8 18 9 11 23 73 18 78 -2 2 2
10 9 18 6 8 14 31 17 53 4 21 8 41 10 45 3 3 7 27 11 51 3 25 10 61 14 81 13
58 13 202 0 255 -22 88 -87 164 -155 178 -42 9 -86 -10 -152 -68 l-54 -46 -19
37 c-11 21 -19 58 -19 85 0 47 1 49 53 82 174 111 199 194 193 631 -5 307 -19
387 -87 491 -36 56 -131 156 -185 194 -11 8 -31 40 -44 70 -74 173 -101 229
-155 324 -25 45 -92 144 -105 156 -3 3 -18 23 -35 45 -35 48 -236 249 -284
285 -18 14 -38 30 -45 36 -21 20 -161 110 -201 129 -22 11 -42 23 -43 28 -2 4
-8 5 -13 1 -5 -3 -9 0 -9 5 0 6 -8 11 -18 11 -10 0 -22 4 -27 9 -11 11 -207
96 -329 143 -88 34 -263 86 -316 94 -19 3 -42 7 -50 9 -8 2 -53 7 -100 11 -47
3 -88 8 -91 10 -3 2 -8 2 -10 0z"/>
</g>
</svg>
