<?xml version="1.0" standalone="no"?>
<!DOCTYPE svg PUBLIC "-//W3C//DTD SVG 20010904//EN"
 "http://www.w3.org/TR/2001/REC-SVG-20010904/DTD/svg10.dtd">
<svg version="1.0" xmlns="http://www.w3.org/2000/svg"
 width="260.000000pt" height="260.000000pt" viewBox="0 0 260.000000 260.000000"
 preserveAspectRatio="xMidYMid meet">
<metadata>
Created by potrace 1.14, written by Peter Selinger 2001-2017
</metadata>
<g transform="translate(0.000000,260.000000) scale(0.100000,-0.100000)"
fill="#000000" stroke="none">
<path d="M1355 2588 c-71 -10 -166 -44 -236 -83 -33 -19 -63 -34 -67 -33 -4 1
-26 -1 -48 -5 -69 -12 -168 -62 -238 -121 -37 -32 -80 -59 -98 -63 -53 -10
-77 -33 -78 -73 0 -22 -17 -70 -43 -121 -39 -76 -49 -100 -62 -144 -2 -5 -15
-46 -31 -90 -27 -80 -27 -81 -27 -352 -1 -214 -3 -273 -13 -273 -7 0 -15 4
-18 9 -4 5 -14 8 -24 6 -9 -2 -24 -4 -33 -4 -10 -1 -26 -19 -37 -42 -17 -33
-20 -56 -17 -115 2 -40 6 -77 9 -82 3 -5 7 -19 10 -33 2 -13 16 -60 29 -104
49 -160 93 -224 143 -205 18 7 26 6 28 -3 10 -40 48 -150 66 -188 45 -97 84
-144 189 -233 214 -181 349 -236 561 -231 189 5 318 60 500 214 142 121 199
201 247 352 23 74 31 89 48 88 45 -3 56 3 80 40 26 38 91 216 101 275 2 17 8
45 12 61 10 38 9 116 -1 133 -5 6 -5 12 -2 12 4 0 -3 13 -14 29 -25 34 -67 45
-98 25 -18 -11 -23 -12 -24 -2 -1 12 1 153 5 328 3 137 -18 257 -61 350 -9 19
-18 58 -19 85 -1 28 -4 60 -8 72 -6 19 3 33 24 39 73 22 71 38 -12 128 -92
101 -155 141 -273 178 -64 19 -184 41 -237 42 -31 1 -35 17 -14 56 21 37 5 56
-61 68 -90 17 -105 18 -158 10z"/>
</g>
</svg>
