<?xml version="1.0" encoding="UTF-8"?><svg version="1.1" width="54px" height="24px" viewBox="0 0 54.0 24.0" xmlns="http://www.w3.org/2000/svg" xmlns:xlink="http://www.w3.org/1999/xlink"><defs><clipPath id="122118114100108521115711899"><path d="M42,0 C48.627417,-1.21743675e-15 54,5.372583 54,12 C54,18.627417 48.627417,24 42,24 L12,24 C5.372583,24 8.11624501e-16,18.627417 0,12 C-8.11624501e-16,5.372583 5.372583,1.21743675e-15 12,0 L42,0 Z"></path></clipPath><clipPath id="117010245551121101074954"><path d="M1.42382812,0 L3.68554688,6.87304688 L3.78515625,6.87304688 L6.046875,0 L7.47070312,0 L4.45898438,8.45507812 L3.01171875,8.45507812 L0,0 L1.42382812,0 Z"></path></clipPath><clipPath id="99955211012010056100120105"><path d="M1.42382812,2.72460938 L1.42382812,9.08789062 L0.158203125,9.08789062 L0.158203125,2.72460938 L1.42382812,2.72460938 Z M0.796875,0 C1.23046875,0 1.59375,0.357421875 1.59375,0.796875 C1.59375,1.23046875 1.23046875,1.58789062 0.796875,1.58789062 C0.357421875,1.58789062 0,1.23046875 0,0.796875 C0,0.357421875 0.357421875,0 0.796875,0 Z"></path></clipPath><clipPath id="117991111125511054113101119"><path d="M5.95898438,0 L5.95898438,8.859375 L4.69335938,8.859375 L4.69335938,7.85742188 L4.59375,7.85742188 C4.22460938,8.5546875 3.52734375,8.96484375 2.63671875,8.96484375 C1.03710938,8.96484375 0,7.68164062 0,5.68359375 L0,5.671875 C0,3.65625 1.01953125,2.38476562 2.63671875,2.38476562 C3.50976562,2.38476562 4.25390625,2.81835938 4.59375,3.50390625 L4.69335938,3.50390625 L4.69335938,0 L5.95898438,0 Z M3,3.47460938 C1.93359375,3.47460938 1.29492188,4.30664062 1.29492188,5.671875 L1.29492188,5.68359375 C1.29492188,7.04882812 1.93359375,7.88085938 3,7.88085938 C4.06054688,7.88085938 4.7109375,7.04296875 4.7109375,5.68359375 L4.7109375,5.671875 C4.7109375,4.3125 4.0546875,3.47460938 3,3.47460938 Z"></path></clipPath><clipPath id="110112101100521131021134555"><path d="M2.92382812,0 C4.69921875,0 5.7890625,1.28320312 5.7890625,3.19335938 L5.7890625,3.63867187 L1.27734375,3.63867187 C1.30078125,4.85742188 1.96875,5.56640625 3.01757812,5.56640625 C3.83203125,5.56640625 4.31835938,5.16210938 4.47070312,4.83398438 L4.49414062,4.78710938 L5.71875,4.78125 L5.70703125,4.83398438 C5.49609375,5.671875 4.6171875,6.609375 2.98828125,6.609375 C1.125,6.609375 0,5.33789062 0,3.32226562 C0,1.33007812 1.1484375,0 2.92382812,0 Z M2.9296875,1.04296875 C2.0625,1.04296875 1.40625,1.63476562 1.29492188,2.73046875 L4.52929688,2.73046875 C4.4296875,1.59375 3.79101562,1.04296875 2.9296875,1.04296875 Z"></path></clipPath><clipPath id="55107535457118485045104"><path d="M3.01171875,0 C4.86914062,0 6.01757812,1.24804688 6.01757812,3.29882812 L6.01757812,3.31054688 C6.01757812,5.36132812 4.875,6.609375 3.01171875,6.609375 C1.14257812,6.609375 0,5.36132812 0,3.31054688 L0,3.29882812 C0,1.25390625 1.1484375,0 3.01171875,0 Z M3.01171875,1.06054688 C1.91601562,1.06054688 1.30078125,1.88671875 1.30078125,3.29882812 L1.30078125,3.31054688 C1.30078125,4.72265625 1.91601562,5.54882812 3.01171875,5.54882812 C4.1015625,5.54882812 4.72265625,4.71679688 4.72265625,3.31054688 L4.72265625,3.29882812 C4.72265625,1.88671875 4.1015625,1.06054688 3.01171875,1.06054688 Z"></path></clipPath></defs><g clip-path="url(#122118114100108521115711899)"><path d="M12,0 L42,0 C48.627417,-1.21743675e-15 54,5.372583 54,12 C54,18.627417 48.627417,24 42,24 L12,24 C5.372583,24 8.11624501e-16,18.627417 0,12 C-8.11624501e-16,5.372583 5.372583,1.21743675e-15 12,0 Z" stroke="#FFFFFF" stroke-width="2" fill="none" stroke-miterlimit="5"></path></g><g transform="translate(11.131054680794477 6.912109375)"><g transform="translate(0.0 0.6328125)"><g clip-path="url(#117010245551121101074954)"><polygon points="0,0 7.47070312,0 7.47070312,8.45507812 0,8.45507812 0,0" stroke="none" fill="#FFFFFF"></polygon></g></g><g transform="translate(8.540156252682209 0.0)"><g clip-path="url(#99955211012010056100120105)"><polygon points="0,0 1.59375,0 1.59375,9.08789062 0,9.08789062 0,0" stroke="none" fill="#FFFFFF"></polygon></g></g><g transform="translate(11.379140630364418 0.228515625)"><g clip-path="url(#117991111125511054113101119)"><polygon points="0,0 5.95898438,0 5.95898438,8.96484375 0,8.96484375 0,0" stroke="none" fill="#FFFFFF"></polygon></g></g><g transform="translate(18.788437508046627 2.6015625)"><g clip-path="url(#110112101100521131021134555)"><polygon points="0,0 5.7890625,0 5.7890625,6.609375 0,6.609375 0,0" stroke="none" fill="#FFFFFF"></polygon></g></g><g transform="translate(25.652812510728836 2.6015625)"><g clip-path="url(#55107535457118485045104)"><polygon points="0,0 6.01757812,0 6.01757812,6.609375 0,6.609375 0,0" stroke="none" fill="#FFFFFF"></polygon></g></g></g></svg>